<svg width="22" height="22" xmlns="http://www.w3.org/2000/svg" xmlns:xlink="http://www.w3.org/1999/xlink" xml:space="preserve" overflow="hidden"><g transform="translate(-463 -254)"><path d="M473.015 259.087C473.015 259.087 472.075 258.996 470.952 259.087L470.494 259.133C469.462 259.202 469.004 260.302 469.096 261.173L469.142 261.631C469.21 262.502 469.99 263.167 470.86 263.098L471.319 263.052C472.442 262.96 473.358 262.663 473.358 262.663L473.015 259.087Z" fill="#BE0028" fill-rule="evenodd"/><path d="M474.344 258.812 474.665 262.502C477.712 262.25 479.156 265.229 482.8 263.212 482.8 263.212 482.8 263.212 482.8 263.212 483.74 262.685 484.083 261.975 484.083 261.058 484.083 260.073 483.533 259.11 482.365 258.606 480.165 257.804 477.254 257.758 474.344 258.812Z" fill="#BE0028" fill-rule="evenodd"/><path d="M467.858 270.913C467.858 270.913 466.919 271.004 465.796 270.913L465.337 270.867C464.306 270.798 463.848 269.698 463.94 268.827L463.985 268.369C464.054 267.498 464.833 266.833 465.704 266.902L466.163 266.948C467.285 267.04 468.202 267.337 468.202 267.337L467.858 270.913Z" fill="#BE0028" fill-rule="evenodd"/><path d="M469.188 271.188 469.508 267.498C472.533 267.75 474 264.771 477.644 266.788 477.644 266.788 477.644 266.788 477.644 266.788 478.583 267.315 478.927 268.025 478.927 268.942 478.927 269.927 478.377 270.89 477.208 271.394 475.008 272.196 472.098 272.242 469.188 271.188Z" fill="#BE0028" fill-rule="evenodd"/></g></svg>